<?xml version="1.0" standalone="no"?>
<!DOCTYPE svg PUBLIC "-//W3C//DTD SVG 20010904//EN"
 "http://www.w3.org/TR/2001/REC-SVG-20010904/DTD/svg10.dtd">
<svg version="1.0" xmlns="http://www.w3.org/2000/svg"
 width="900.000000pt" height="777.000000pt" viewBox="0 0 900.000000 777.000000"
 preserveAspectRatio="xMidYMid meet">
<metadata>
Created by potrace 1.10, written by Peter Selinger 2001-2011
</metadata>
<g transform="translate(0.000000,777.000000) scale(0.100000,-0.100000)"
fill="#000000" stroke="none">
<path d="M2922 7456 c-22 -59 -82 -107 -214 -169 -79 -37 -128 -98 -128 -159
0 -37 6 -52 30 -78 29 -31 78 -40 72 -12 -7 36 79 140 138 165 8 4 23 11 33
17 9 5 25 15 35 20 9 6 24 13 32 16 41 16 84 41 107 62 36 33 27 78 -27 131
-24 23 -48 41 -54 41 -7 0 -17 -15 -24 -34z"/>
<path d="M4011 7381 c-16 -30 -15 -707 2 -768 8 -32 25 -61 53 -89 35 -35 48
-42 97 -47 31 -4 81 -4 111 -1 45 5 63 14 104 50 28 24 55 44 60 44 6 0 26
-13 44 -30 18 -16 39 -30 48 -30 9 0 26 -8 40 -17 19 -13 48 -17 139 -17 104
-1 121 2 166 24 105 51 203 197 234 351 16 77 27 77 133 -4 46 -35 95 -71 111
-80 15 -10 36 -37 47 -60 19 -40 19 -46 5 -79 -23 -55 -58 -78 -122 -78 -29 0
-70 7 -90 15 -19 8 -48 15 -64 15 -26 0 -29 -3 -29 -32 0 -29 6 -35 43 -53 63
-29 228 -28 277 3 50 30 77 71 85 125 12 78 -1 130 -43 173 -43 45 -82 78
-102 86 -8 4 -41 27 -72 52 -64 51 -81 93 -56 142 21 43 69 55 155 36 73 -16
100 -13 109 12 8 22 -26 50 -79 64 -98 25 -198 9 -253 -41 -32 -28 -94 -143
-94 -174 -1 -10 -7 -29 -15 -43 -8 -14 -14 -37 -15 -51 0 -14 -7 -34 -15 -45
-8 -10 -15 -27 -15 -37 -1 -51 -127 -217 -166 -217 -6 0 -25 -7 -40 -15 -70
-36 -190 -7 -264 65 -59 57 -96 160 -85 235 4 25 11 48 16 51 5 3 9 16 9 30 0
38 76 133 106 134 6 0 17 7 24 15 17 21 184 21 220 0 14 -8 42 -14 63 -15 35
0 37 2 37 33 0 27 -6 35 -32 49 -99 50 -269 50 -363 1 -40 -21 -102 -80 -129
-123 -56 -91 -70 -217 -36 -331 13 -45 13 -47 -15 -83 -34 -45 -72 -66 -120
-66 -68 0 -108 39 -124 119 -15 76 -15 403 1 419 7 7 44 12 96 12 94 0 122 10
122 44 0 31 -16 36 -109 36 -108 0 -115 6 -121 117 l-5 88 -37 3 c-28 2 -39
-1 -47 -17z"/>
<path d="M3175 7375 c-21 -63 -75 -135 -102 -135 -7 0 -13 -3 -13 -8 0 -7 -59
-36 -140 -67 -25 -9 -52 -21 -60 -26 -8 -5 -22 -12 -30 -16 -18 -8 -60 -55
-60 -67 0 -5 27 -5 63 -1 81 10 118 9 197 -3 53 -8 71 -7 98 5 43 20 84 71
106 132 17 47 17 52 0 104 -9 30 -25 65 -35 78 -17 23 -18 23 -24 4z"/>
<path d="M2820 6980 c-14 -4 -41 -9 -60 -9 -19 -1 -44 -8 -54 -16 -11 -8 -28
-15 -37 -15 -10 0 -40 -22 -68 -49 -46 -45 -51 -54 -51 -94 0 -41 5 -50 78
-131 l77 -86 3 47 c3 54 29 82 74 83 24 0 28 -5 33 -37 3 -21 12 -60 20 -88
19 -71 36 -143 45 -190 4 -22 12 -53 19 -68 6 -16 11 -43 11 -60 1 -18 7 -43
15 -57 8 -14 14 -39 15 -56 0 -17 7 -48 15 -67 8 -20 15 -49 15 -65 0 -16 7
-46 15 -65 8 -20 15 -51 15 -70 0 -18 5 -38 10 -43 6 -6 15 -33 20 -60 20
-103 33 -160 46 -197 8 -20 14 -50 14 -66 0 -16 7 -42 15 -57 8 -16 15 -45 15
-65 0 -19 5 -40 11 -46 6 -6 14 -35 19 -64 10 -60 24 -120 46 -189 8 -25 14
-59 14 -76 0 -16 4 -34 9 -40 6 -5 14 -34 20 -64 11 -63 27 -126 47 -190 8
-25 14 -58 14 -75 1 -16 7 -41 15 -55 8 -14 14 -36 15 -49 0 -13 7 -48 15 -78
8 -29 22 -77 30 -106 8 -30 15 -66 15 -81 0 -15 5 -36 11 -47 6 -11 14 -41 19
-67 11 -57 27 -122 46 -182 8 -25 14 -58 14 -73 0 -16 5 -37 11 -48 6 -11 14
-41 19 -67 11 -57 27 -122 46 -182 8 -25 14 -58 14 -73 0 -16 5 -37 11 -48 6
-11 14 -41 19 -67 8 -45 15 -74 45 -187 28 -105 37 -141 45 -185 8 -43 13 -64
45 -185 23 -85 37 -148 44 -190 4 -23 11 -47 15 -54 5 -7 11 -36 15 -64 7 -59
27 -72 42 -28 6 17 15 31 20 31 5 0 9 7 9 15 0 8 14 37 30 65 35 59 35 57 14
124 -9 28 -22 71 -30 96 -8 25 -14 56 -14 70 -1 14 -7 34 -15 44 -8 11 -15 34
-15 50 -1 17 -7 42 -15 56 -8 14 -14 37 -15 51 0 15 -7 43 -15 62 -8 20 -15
49 -15 65 0 15 -5 33 -12 40 -6 6 -15 30 -19 54 -11 62 -29 128 -45 166 -8 18
-14 45 -14 60 -1 15 -7 38 -15 52 -8 14 -15 39 -15 55 0 17 -4 37 -9 44 -11
17 -2 37 43 97 17 23 40 54 50 68 30 42 56 29 56 -28 0 -12 4 -26 9 -32 6 -5
14 -27 20 -49 24 -96 35 -132 47 -162 8 -17 14 -42 14 -55 0 -13 5 -29 11 -35
6 -6 15 -29 19 -50 8 -36 12 -51 40 -133 7 -19 15 -51 19 -70 4 -19 13 -45 19
-57 7 -12 12 -30 12 -41 0 -11 7 -33 15 -48 8 -16 15 -39 15 -50 0 -12 7 -35
15 -50 8 -16 15 -40 15 -54 0 -14 7 -34 15 -44 8 -11 15 -34 15 -51 0 -17 4
-35 9 -40 6 -6 14 -28 20 -50 21 -83 40 -144 50 -164 6 -11 11 -33 11 -48 0
-16 5 -34 11 -40 6 -6 15 -29 19 -50 5 -21 13 -54 20 -73 28 -81 32 -97 39
-130 4 -19 13 -45 19 -57 7 -12 12 -32 12 -45 0 -13 4 -28 9 -33 6 -6 14 -28
20 -50 24 -96 35 -132 47 -162 8 -17 14 -42 14 -55 0 -13 4 -28 9 -33 6 -6 14
-28 20 -50 6 -22 17 -62 24 -90 l14 -50 7 32 c4 18 12 35 17 38 5 4 9 16 9 29
0 12 7 31 15 42 8 10 15 28 15 39 0 11 6 29 14 40 35 52 27 126 -31 262 -7 17
-13 38 -13 46 0 8 -7 28 -15 43 -8 16 -15 40 -15 54 0 14 -7 34 -15 44 -8 11
-15 27 -15 37 0 9 -7 30 -15 45 -8 16 -15 38 -15 49 0 11 -7 29 -15 39 -8 11
-15 30 -15 42 0 12 -7 35 -15 50 -8 16 -15 38 -15 49 0 11 -7 29 -15 39 -8 11
-15 31 -15 45 0 14 -7 35 -15 45 -8 11 -15 30 -15 42 0 12 -7 35 -15 50 -8 16
-15 37 -15 47 0 9 -4 25 -10 35 -14 25 -41 102 -47 137 -3 17 -12 39 -19 50
-8 11 -14 31 -14 45 0 14 -5 31 -11 37 -6 6 -14 26 -19 44 -10 39 -27 90 -46
137 -8 18 -14 43 -14 55 0 13 -4 27 -9 32 -5 6 -14 26 -19 45 -6 19 -16 51
-23 70 -6 19 -17 51 -24 70 -7 19 -18 51 -24 70 -7 19 -16 49 -21 65 -10 37
-29 89 -47 132 -7 17 -13 39 -13 50 -1 10 -7 29 -15 43 -8 14 -14 30 -15 36 0
6 25 46 56 89 55 75 57 76 75 58 19 -18 56 -104 66 -153 3 -14 12 -34 19 -45
8 -11 14 -27 14 -36 0 -9 7 -30 15 -45 8 -16 15 -36 15 -45 0 -8 5 -20 11 -26
6 -6 14 -26 19 -44 11 -46 30 -98 46 -131 8 -14 14 -34 14 -45 0 -10 7 -27 15
-37 8 -11 15 -29 15 -40 0 -12 7 -30 15 -40 8 -11 15 -28 15 -37 0 -21 20 -69
29 -69 7 0 12 9 56 99 16 34 35 61 41 61 17 0 54 -49 54 -71 0 -9 6 -30 14
-46 18 -36 40 -87 61 -143 10 -25 23 -57 31 -72 8 -14 14 -33 14 -41 0 -9 6
-28 14 -44 18 -36 40 -87 61 -143 10 -25 23 -57 31 -72 8 -14 14 -33 14 -41 0
-9 8 -30 17 -49 9 -18 22 -45 30 -60 7 -14 13 -33 13 -41 0 -9 6 -28 14 -44 8
-15 20 -40 27 -55 15 -34 25 -35 32 -5 8 34 28 89 45 122 22 41 21 114 -2 161
-11 21 -25 53 -32 69 -7 17 -27 60 -43 98 -17 37 -31 70 -31 74 0 4 -14 37
-31 73 -17 36 -35 74 -39 85 -9 22 -44 102 -68 155 -8 19 -22 51 -30 70 -9 19
-22 51 -30 70 -9 19 -21 49 -28 65 -6 17 -18 43 -25 58 -12 26 -9 35 35 122
26 52 52 97 56 100 14 8 38 -23 67 -83 14 -31 46 -100 71 -152 24 -52 58 -124
75 -160 16 -36 34 -72 38 -80 5 -8 12 -22 15 -30 6 -15 37 -81 93 -200 17 -36
31 -71 31 -78 0 -28 34 -6 41 26 4 19 12 39 18 45 6 6 11 20 11 32 0 12 7 30
15 41 8 10 15 26 15 34 0 8 -36 87 -81 175 -45 88 -92 183 -106 210 -14 28
-29 57 -34 65 -5 8 -12 22 -15 30 -3 8 -9 22 -14 30 -39 67 -140 276 -140 291
0 10 4 21 10 24 5 3 21 30 35 59 14 29 34 61 46 71 l20 19 -21 16 c-33 25 -43
87 -47 292 -4 176 -3 190 18 229 19 39 21 52 14 149 -6 98 -5 107 14 124 11
10 37 22 58 26 36 8 51 12 133 40 19 7 49 16 65 20 19 5 -31 8 -132 9 -178 1
-173 -1 -187 66 -6 30 -3 34 108 115 63 47 113 86 111 89 -2 2 -20 -4 -39 -13
-19 -9 -39 -16 -45 -16 -6 0 -19 -4 -29 -10 -24 -14 -99 -40 -150 -52 -40 -9
-47 -8 -84 18 -66 46 -67 61 -2 234 37 99 25 107 -30 20 -21 -33 -41 -60 -45
-60 -3 0 -17 -17 -31 -38 -32 -48 -38 -52 -85 -52 -82 0 -128 26 -159 90 -4 8
-22 42 -41 75 -18 33 -44 80 -57 104 -29 55 -37 31 -15 -43 56 -186 58 -206
21 -235 -15 -12 -32 -21 -39 -21 -7 0 -18 -7 -25 -15 -21 -25 -51 -19 -130 26
-8 5 -22 12 -30 15 -8 3 -55 25 -103 50 -48 24 -90 44 -93 44 -8 0 30 -34 106
-95 96 -76 150 -130 149 -147 0 -7 -8 -26 -18 -43 -21 -35 -54 -42 -226 -45
l-110 -2 70 -14 c39 -8 97 -18 131 -23 76 -11 100 -23 108 -57 13 -49 -33 -84
-141 -111 -13 -3 -23 -12 -23 -20 0 -11 9 -13 38 -9 139 21 126 23 167 -31 78
-103 115 -157 115 -169 0 -14 -66 -100 -122 -159 -29 -30 -41 -38 -52 -30 -8
6 -54 37 -102 69 -80 55 -144 122 -144 152 0 7 -6 25 -14 41 -13 26 -24 50
-62 138 -8 19 -21 50 -30 70 -8 19 -21 49 -28 67 -8 18 -22 51 -32 73 -9 22
-23 54 -30 70 -13 33 -33 79 -58 137 -9 21 -23 53 -32 73 -8 19 -21 50 -30 70
-8 19 -22 52 -31 72 -9 21 -23 54 -31 73 -8 19 -21 47 -29 62 -7 14 -13 35
-13 46 0 11 -7 25 -15 32 -8 7 -15 19 -15 27 0 8 -13 41 -30 75 -16 33 -30 66
-30 73 0 7 -7 26 -15 42 -26 51 -75 163 -75 172 0 5 -8 24 -17 43 -9 18 -22
45 -30 60 -19 37 -16 60 10 88 12 14 42 48 66 75 24 28 68 75 98 107 56 59 69
102 38 128 -8 7 -15 18 -15 24 0 15 -92 86 -112 86 -8 0 -20 6 -26 12 -28 28
-233 47 -292 28z"/>
<path d="M6207 6287 c-121 -125 -292 -311 -295 -321 -1 -6 11 -22 28 -35 l31
-22 55 58 c30 32 76 79 101 106 77 80 93 62 70 -76 -9 -51 -18 -135 -21 -189
-4 -91 -3 -97 20 -119 l24 -22 102 108 c57 60 131 139 165 175 35 36 63 70 63
76 0 6 -12 21 -26 35 l-25 24 -92 -95 c-103 -106 -134 -128 -144 -104 -3 8 -1
26 6 40 6 14 11 60 11 102 0 71 11 157 26 208 4 16 -3 30 -25 53 -17 17 -33
31 -36 31 -3 0 -20 -15 -38 -33z"/>
<path d="M1921 5971 l-30 -29 37 -34 c20 -18 67 -55 103 -82 101 -73 116 -123
34 -111 -16 2 -96 7 -177 10 l-147 7 -30 -30 c-17 -16 -31 -34 -31 -39 0 -5
27 -29 60 -53 33 -24 60 -47 60 -51 0 -4 8 -10 18 -13 9 -3 28 -16 42 -29 14
-12 65 -53 114 -91 l89 -67 24 25 c12 14 23 31 23 38 0 7 -24 30 -53 51 -28
20 -72 55 -97 77 -25 22 -53 42 -62 46 -22 7 -23 30 -2 38 9 3 100 6 203 6
169 0 190 2 204 18 10 10 17 25 17 34 0 13 -123 117 -270 228 -25 18 -49 38
-55 44 -34 37 -42 38 -74 7z"/>
<path d="M6682 5700 c-40 -28 -75 -50 -78 -50 -2 0 -10 -5 -17 -10 -7 -6 -57
-40 -112 -76 -55 -36 -101 -67 -103 -69 -3 -3 20 -58 28 -65 14 -13 96 -136
107 -160 3 -8 9 -17 13 -20 3 -3 13 -17 23 -32 20 -33 31 -34 61 -10 l23 18
-23 34 c-13 19 -24 40 -24 46 0 7 -7 14 -15 18 -8 3 -15 12 -15 20 0 8 -3 16
-7 18 -16 7 -53 68 -53 87 0 29 76 79 98 65 10 -6 41 -46 70 -90 29 -43 60
-80 68 -82 8 -2 25 5 38 15 l24 19 -29 35 c-16 18 -29 39 -29 46 0 6 -3 13 -7
15 -18 7 -53 69 -53 92 0 34 74 84 96 65 15 -12 74 -96 74 -105 0 -2 13 -22
29 -45 17 -22 31 -45 33 -50 5 -14 57 7 64 26 3 8 -7 31 -23 52 -16 21 -33 45
-36 53 -10 21 -28 49 -59 91 -16 20 -28 42 -28 48 0 6 -4 11 -9 11 -5 0 -13 9
-16 20 -10 31 -33 24 -113 -30z"/>
<path d="M1561 5263 c-106 -10 -209 -138 -211 -262 -1 -105 82 -212 188 -245
63 -19 86 -18 156 6 45 15 146 109 146 136 0 9 7 30 15 46 24 45 19 108 -15
180 -51 107 -139 151 -279 139z m111 -97 c47 -20 92 -69 108 -116 11 -33 11
-47 0 -82 -17 -53 -25 -64 -74 -100 -31 -22 -50 -28 -93 -28 -55 0 -89 14
-130 56 -42 42 -69 143 -43 159 6 3 10 14 10 24 0 21 50 70 88 87 37 17 93 17
134 0z"/>
<path d="M7095 5210 c-3 -6 -32 -28 -65 -50 -32 -21 -64 -45 -72 -52 -7 -7
-29 -24 -48 -38 -19 -13 -39 -28 -45 -32 -31 -25 -60 -47 -104 -78 -53 -37
-70 -65 -52 -83 6 -6 11 -19 11 -29 0 -17 13 -18 164 -18 129 0 166 -3 175
-14 13 -16 -3 -31 -164 -153 -82 -62 -90 -71 -87 -98 2 -17 7 -33 10 -37 4 -4
123 -10 265 -14 l258 -6 -7 38 c-4 22 -12 43 -18 47 -11 7 -240 1 -302 -9 -23
-3 -33 0 -38 11 -7 19 10 55 25 55 9 0 33 17 104 73 6 4 38 28 73 53 63 47 73
66 52 105 -10 18 -23 19 -170 19 -87 0 -165 3 -174 6 -23 9 -19 29 10 50 14
10 46 34 69 52 24 17 49 32 54 32 6 0 11 4 11 9 0 5 8 12 18 15 9 4 34 21 55
39 l39 32 -14 43 c-13 42 -22 51 -33 32z"/>
<path d="M1197 4503 c-10 -20 -6 -77 5 -85 7 -4 45 -8 84 -8 52 0 75 -4 84
-15 18 -21 7 -162 -15 -204 -14 -28 -20 -32 -43 -27 -15 4 -57 9 -93 13 l-66
5 -6 -32 c-4 -18 -5 -35 -2 -40 4 -7 43 -14 235 -41 79 -11 244 -28 246 -25 1
0 4 17 7 37 l5 36 -61 12 c-34 7 -78 16 -97 20 l-35 7 4 89 c2 50 8 101 13
114 8 23 11 24 86 18 42 -3 85 -8 94 -12 18 -7 23 1 42 63 7 21 4 22 -37 22
-25 0 -81 7 -124 15 -43 8 -98 15 -123 15 -25 0 -72 7 -105 15 -68 16 -92 18
-98 8z"/>
<path d="M4912 4487 c-6 -7 -16 -24 -21 -37 -6 -14 -16 -34 -23 -45 -6 -11
-14 -27 -18 -35 -6 -12 63 -165 81 -180 4 -3 18 -30 33 -60 15 -30 43 -82 62
-115 19 -33 46 -82 60 -110 14 -27 34 -63 44 -80 11 -16 22 -36 25 -42 3 -7 7
-19 10 -25 12 -30 42 -72 53 -76 7 -2 12 5 12 17 0 20 17 66 46 124 17 34 18
63 3 72 -5 4 -15 17 -20 28 -5 12 -18 36 -29 52 -11 17 -23 37 -27 45 -3 8
-18 33 -32 55 -27 42 -30 48 -75 130 -15 28 -36 64 -47 80 -10 17 -23 39 -29
50 -6 11 -19 34 -30 50 -11 17 -23 37 -27 45 -24 52 -40 70 -51 57z"/>
<path d="M7327 3979 c-27 -17 -59 -35 -70 -40 -12 -5 -35 -18 -52 -29 -16 -11
-37 -23 -45 -26 -8 -4 -23 -14 -34 -23 -14 -13 -39 -16 -121 -14 l-103 3 -5
-33 c-9 -59 3 -67 104 -67 71 0 96 -4 114 -17 12 -10 33 -25 45 -33 12 -8 28
-19 34 -25 7 -5 19 -14 28 -20 9 -5 41 -27 71 -47 31 -21 60 -38 65 -38 14 0
20 69 8 84 -6 7 -51 38 -99 70 l-89 58 28 29 c15 16 36 29 45 29 10 0 21 4 24
10 3 5 31 22 61 36 l54 25 0 50 c0 27 -3 49 -7 49 -5 0 -30 -14 -56 -31z"/>
<path d="M1140 3738 c0 -13 7 -61 15 -108 8 -47 15 -120 15 -162 0 -101 3
-108 52 -108 l40 0 -6 38 c-4 20 -9 51 -12 67 -9 52 17 66 148 75 62 5 148 14
190 21 76 12 78 12 72 38 -4 14 -12 31 -18 37 -13 13 -146 5 -289 -17 -106
-16 -114 -11 -125 76 l-7 60 -37 3 c-34 3 -38 1 -38 -20z"/>
<path d="M6962 3403 c-43 -6 -142 -103 -161 -158 -22 -66 -25 -132 -7 -169 9
-19 16 -40 16 -48 0 -15 64 -88 77 -88 5 0 14 -5 21 -12 14 -14 95 -37 134
-38 106 -1 208 78 242 188 27 91 10 175 -50 247 -46 56 -86 75 -167 79 -40 2
-87 2 -105 -1z m138 -94 c59 -27 79 -46 101 -97 21 -48 24 -87 9 -97 -5 -3
-10 -16 -10 -29 0 -44 -89 -106 -154 -106 -69 0 -166 65 -166 111 0 10 -4 21
-10 24 -24 15 1 109 41 151 27 29 94 63 124 63 11 0 40 -9 65 -20z"/>
<path d="M1655 3257 c-11 -12 -40 -40 -66 -62 -25 -22 -86 -77 -135 -122 -50
-45 -108 -97 -129 -116 l-39 -35 19 -37 c19 -36 23 -37 80 -41 33 -3 85 -9
115 -14 30 -5 120 -10 200 -12 l145 -2 -3 24 c-4 46 -10 50 -64 50 -29 0 -58
4 -65 8 -11 7 -40 75 -50 122 -4 14 -13 35 -21 47 -20 31 -9 63 33 93 43 32
48 44 33 86 -14 39 -25 41 -53 11z m-65 -263 c0 -13 5 -26 10 -29 6 -3 10 -19
10 -36 0 -29 0 -29 -57 -28 -154 3 -161 31 -29 122 38 26 41 27 53 11 7 -10
13 -28 13 -40z"/>
<path d="M6630 2746 c-5 -13 -14 -27 -20 -31 -13 -8 16 -45 36 -45 7 0 19 -6
26 -14 8 -7 24 -17 36 -20 32 -11 29 -58 -5 -96 -26 -28 -34 -30 -121 -36 -85
-6 -94 -9 -102 -30 -5 -12 -14 -25 -19 -29 -29 -17 -3 -23 79 -18 106 7 120 0
120 -62 0 -34 6 -48 36 -77 47 -48 110 -66 165 -48 43 15 90 64 129 135 11 22
35 64 51 94 l31 55 -24 17 c-12 10 -41 27 -63 39 -22 12 -53 30 -70 40 -16 11
-43 26 -60 34 -16 8 -52 29 -80 45 -27 17 -60 35 -72 40 -11 5 -24 15 -28 20
-11 19 -35 12 -45 -13z m227 -197 c15 -5 30 -13 33 -17 3 -4 17 -13 33 -19 16
-8 27 -20 27 -33 0 -24 -56 -118 -85 -142 -31 -27 -72 -22 -106 11 -36 36 -37
72 -4 126 14 22 29 50 35 63 11 25 25 27 67 11z"/>
<path d="M1930 2578 c-7 -24 -20 -50 -27 -59 -7 -8 -13 -25 -13 -36 0 -36 -25
-47 -61 -29 -59 29 -144 11 -191 -40 -43 -49 -37 -161 14 -225 15 -20 28 -39
28 -42 0 -8 81 -127 86 -127 8 0 48 22 54 29 8 10 91 63 120 77 8 4 17 10 20
14 3 3 51 37 108 74 56 38 102 74 102 80 -1 18 -37 56 -53 56 -8 0 -20 -7 -27
-15 -7 -8 -18 -15 -25 -15 -7 0 -18 -7 -25 -16 -23 -27 -70 -14 -93 27 l-21
36 32 64 c43 88 46 108 24 148 -26 48 -37 48 -52 -1z m-112 -208 c18 -11 36
-28 39 -38 4 -9 9 -19 13 -22 16 -14 40 -62 40 -80 0 -11 -8 -23 -17 -27 -10
-3 -35 -19 -55 -35 -24 -19 -44 -27 -55 -23 -10 3 -35 32 -55 64 -53 80 -49
133 10 165 36 20 41 20 80 -4z"/>
<path d="M6282 2207 c-12 -13 -22 -29 -22 -36 0 -6 23 -33 50 -58 47 -43 50
-49 50 -94 0 -42 -3 -49 -22 -54 -13 -3 -45 -1 -73 5 -27 7 -80 14 -118 17
-66 5 -67 5 -104 -31 l-37 -36 44 0 c25 0 72 -7 105 -15 33 -8 87 -15 120 -15
33 0 66 -4 73 -9 16 -9 32 -111 32 -202 0 -36 3 -69 6 -72 4 -4 19 10 35 29
27 34 28 39 21 102 -4 37 -7 103 -7 147 0 102 10 103 103 13 l69 -67 32 33 31
32 -137 132 c-157 149 -215 202 -224 202 -3 0 -15 -10 -27 -23z"/>
<path d="M2310 2092 c0 -10 -7 -27 -15 -38 -8 -10 -15 -31 -15 -45 0 -14 -7
-34 -15 -45 -8 -10 -15 -28 -15 -39 0 -11 -7 -33 -15 -49 -8 -15 -15 -36 -15
-45 0 -10 -7 -26 -15 -37 -8 -10 -15 -29 -15 -42 0 -13 -6 -35 -14 -50 -7 -15
-17 -45 -20 -67 -6 -35 -4 -44 18 -64 18 -17 31 -21 48 -16 22 6 138 59 168
76 8 5 22 12 30 15 29 11 85 37 100 46 8 4 22 11 30 14 8 3 27 12 42 20 14 8
31 14 37 14 7 0 23 7 37 16 l25 17 -22 23 c-28 30 -50 30 -105 3 -49 -25 -39
-30 -152 71 -67 59 -79 94 -47 136 21 28 18 47 -13 77 -33 32 -42 34 -42 9z
m78 -304 c33 -32 39 -44 31 -55 -6 -7 -17 -13 -24 -13 -7 0 -18 -7 -25 -15 -7
-8 -19 -15 -28 -15 -8 0 -23 -7 -33 -16 -10 -9 -25 -14 -34 -11 -20 8 -20 67
0 93 8 10 15 28 15 40 0 49 44 46 98 -8z"/>
<path d="M2869 1623 c-18 -21 -213 -413 -208 -417 55 -37 110 -48 124 -25 4 5
17 15 28 20 29 13 56 29 94 57 34 24 82 30 84 10 1 -7 4 -62 8 -122 l6 -109
44 -24 c24 -12 47 -21 50 -18 7 4 52 94 125 247 20 43 41 80 46 83 6 4 10 14
10 24 0 10 7 24 15 31 23 19 14 53 -18 68 -15 7 -31 11 -35 8 -4 -3 -27 -44
-51 -93 -23 -48 -47 -95 -52 -103 -5 -8 -14 -27 -20 -42 -6 -16 -17 -28 -25
-28 -7 0 -16 12 -19 28 -3 15 -10 47 -15 72 -5 25 -13 64 -16 88 -4 23 -8 42
-10 42 -2 0 -26 -13 -52 -30 -27 -16 -54 -30 -61 -30 -6 0 -11 -3 -11 -7 0
-12 -61 -44 -71 -37 -12 7 -12 61 0 68 5 4 19 27 31 54 12 26 26 54 31 62 5 8
11 21 14 28 3 6 7 18 10 25 3 6 10 20 17 29 10 14 10 20 -2 32 -26 24 -55 28
-71 9z"/>
<path d="M5431 1549 c-59 -31 -111 -79 -126 -116 -20 -48 -20 -50 15 -56 35
-7 60 0 60 18 0 21 46 63 93 84 56 26 54 26 108 2 134 -60 161 -215 54 -307
-27 -23 -102 -41 -130 -31 -21 9 -45 -20 -45 -54 0 -24 4 -29 25 -30 14 -1 31
-2 38 -3 19 -3 108 23 142 41 26 14 58 45 95 90 6 7 10 19 10 27 0 9 8 31 17
51 15 31 15 41 4 78 -6 23 -15 54 -19 69 -11 42 -76 113 -125 137 -56 27 -166
27 -216 0z"/>
<path d="M4971 1363 c-18 -4 -22 -9 -18 -26 20 -79 31 -116 43 -145 8 -18 14
-43 14 -56 0 -13 7 -37 15 -52 8 -16 15 -40 15 -54 0 -15 5 -31 10 -36 6 -6
14 -30 18 -55 l8 -44 44 4 c25 1 47 5 49 7 3 3 -3 18 -12 33 -9 16 -17 37 -17
46 0 10 -7 38 -14 64 -8 25 -22 73 -31 106 -9 33 -21 74 -27 90 -5 17 -13 46
-17 66 -13 60 -18 64 -80 52z"/>
<path d="M3956 1267 c-9 -27 -26 -132 -26 -155 0 -19 -76 -131 -110 -162 -3
-3 -21 -25 -40 -50 -19 -25 -43 -54 -54 -65 l-21 -20 54 -3 c61 -4 63 -2 129
95 66 97 79 99 116 18 11 -22 23 -47 28 -55 4 -8 11 -22 14 -30 20 -52 27 -58
68 -63 22 -2 44 -2 47 -1 4 2 -25 66 -64 141 l-71 138 0 110 -1 109 -33 3
c-19 2 -34 -2 -36 -10z"/>
<path d="M4503 1272 c-12 -8 -2 -233 14 -322 5 -25 7 -53 5 -63 -5 -24 -42
-37 -103 -37 l-49 0 4 -36 c3 -20 6 -37 8 -38 8 -5 218 14 258 23 25 5 67 10
93 11 l48 0 -3 33 -3 32 -75 3 c-41 2 -80 8 -86 13 -8 6 -14 47 -17 102 -3 51
-11 136 -18 190 -12 94 -14 97 -38 97 -14 0 -31 -4 -38 -8z"/>
</g>
</svg>
